<svg width="24" height="24" viewBox="0 0 24 24" fill="none" xmlns="http://www.w3.org/2000/svg">
<path d="M12.0064 0.181641C7.07148 0.181641 5.62821 0.186732 5.34766 0.210004C4.33494 0.294186 3.70476 0.453641 3.01821 0.795459C2.48912 1.05819 2.07185 1.36273 1.66003 1.78964C0.910028 2.56819 0.455482 3.526 0.290937 4.66455C0.210937 5.21728 0.187664 5.33 0.182937 8.15328C0.181119 9.09437 0.182937 10.3329 0.182937 11.9942C0.182937 16.9251 0.188392 18.3669 0.212028 18.6469C0.293846 19.6324 0.448391 20.2524 0.775664 20.9306C1.40112 22.2287 2.59566 23.2033 4.00294 23.5669C4.49021 23.6924 5.02839 23.7615 5.7193 23.7942C6.01203 23.8069 8.99566 23.816 11.9811 23.816C14.9666 23.816 17.952 23.8124 18.2375 23.7978C19.0375 23.7602 19.502 23.6978 20.0157 23.5651C21.432 23.1996 22.6048 22.2396 23.2429 20.9233C23.5638 20.2615 23.7266 19.6178 23.8002 18.6838C23.8162 18.4802 23.8229 15.2335 23.8229 11.9911C23.8229 8.74819 23.8157 5.50746 23.7997 5.30382C23.7251 4.35473 23.5624 3.71655 23.2311 3.042C22.9593 2.48982 22.6575 2.07746 22.2193 1.65582C21.4373 0.908913 20.4809 0.454368 19.3413 0.290004C18.7891 0.210186 18.6791 0.18655 15.8537 0.181641H12.0064Z" fill="url(#paint0_radial_1_1682)"/>
<path d="M12.0064 0.181641C7.07148 0.181641 5.62821 0.186732 5.34766 0.210004C4.33494 0.294186 3.70476 0.453641 3.01821 0.795459C2.48912 1.05819 2.07185 1.36273 1.66003 1.78964C0.910028 2.56819 0.455482 3.526 0.290937 4.66455C0.210937 5.21728 0.187664 5.33 0.182937 8.15328C0.181119 9.09437 0.182937 10.3329 0.182937 11.9942C0.182937 16.9251 0.188392 18.3669 0.212028 18.6469C0.293846 19.6324 0.448391 20.2524 0.775664 20.9306C1.40112 22.2287 2.59566 23.2033 4.00294 23.5669C4.49021 23.6924 5.02839 23.7615 5.7193 23.7942C6.01203 23.8069 8.99566 23.816 11.9811 23.816C14.9666 23.816 17.952 23.8124 18.2375 23.7978C19.0375 23.7602 19.502 23.6978 20.0157 23.5651C21.432 23.1996 22.6048 22.2396 23.2429 20.9233C23.5638 20.2615 23.7266 19.6178 23.8002 18.6838C23.8162 18.4802 23.8229 15.2335 23.8229 11.9911C23.8229 8.74819 23.8157 5.50746 23.7997 5.30382C23.7251 4.35473 23.5624 3.71655 23.2311 3.042C22.9593 2.48982 22.6575 2.07746 22.2193 1.65582C21.4373 0.908913 20.4809 0.454368 19.3413 0.290004C18.7891 0.210186 18.6791 0.18655 15.8537 0.181641H12.0064Z" fill="url(#paint1_radial_1_1682)"/>
<path d="M12.0009 3.27295C9.63077 3.27295 9.33331 3.28331 8.4024 3.32568C7.47331 3.36822 6.83913 3.51531 6.28422 3.73113C5.71022 3.95404 5.22331 4.25222 4.73822 4.73749C4.25277 5.22259 3.95459 5.70949 3.73095 6.28331C3.51459 6.8384 3.36731 7.47277 3.32549 8.40149C3.28386 9.3324 3.27295 9.63004 3.27295 12.0002C3.27295 14.3704 3.28349 14.667 3.32568 15.5979C3.3684 16.5269 3.51549 17.1611 3.73113 17.716C3.95422 18.29 4.2524 18.7769 4.73768 19.262C5.22259 19.7475 5.70949 20.0464 6.28313 20.2693C6.8384 20.4851 7.47277 20.6322 8.40168 20.6748C9.33259 20.7171 9.62986 20.7275 11.9999 20.7275C14.3702 20.7275 14.6668 20.7171 15.5977 20.6748C16.5268 20.6322 17.1617 20.4851 17.7169 20.2693C18.2908 20.0464 18.7769 19.7475 19.2619 19.262C19.7473 18.7769 20.0455 18.29 20.2691 17.7162C20.4837 17.1611 20.6309 16.5268 20.6746 15.598C20.7164 14.6671 20.7273 14.3704 20.7273 12.0002C20.7273 9.63004 20.7164 9.33259 20.6746 8.40168C20.6309 7.47259 20.4837 6.8384 20.2691 6.28349C20.0455 5.70949 19.7473 5.22259 19.2619 4.73749C18.7764 4.25204 18.2909 3.95386 17.7164 3.73113C17.16 3.51531 16.5255 3.36822 15.5964 3.32568C14.6655 3.28331 14.3691 3.27295 11.9982 3.27295H12.0009ZM11.218 4.84568C11.4504 4.84531 11.7097 4.84568 12.0009 4.84568C14.3311 4.84568 14.6073 4.85404 15.5275 4.89586C16.3784 4.93477 16.8402 5.07695 17.1479 5.1964C17.5551 5.35459 17.8455 5.54368 18.1508 5.84913C18.4562 6.15459 18.6453 6.44549 18.8039 6.85277C18.9233 7.16004 19.0657 7.62186 19.1044 8.47277C19.1462 9.39277 19.1553 9.66913 19.1553 11.9982C19.1553 14.3273 19.1462 14.6037 19.1044 15.5237C19.0655 16.3746 18.9233 16.8364 18.8039 17.1437C18.6457 17.551 18.4562 17.841 18.1508 18.1462C17.8453 18.4517 17.5553 18.6408 17.1479 18.7989C16.8406 18.9189 16.3784 19.0608 15.5275 19.0997C14.6075 19.1415 14.3311 19.1506 12.0009 19.1506C9.67058 19.1506 9.3944 19.1415 8.4744 19.0997C7.62349 19.0604 7.16168 18.9182 6.85386 18.7988C6.44659 18.6406 6.15568 18.4515 5.85022 18.146C5.54477 17.8406 5.35568 17.5504 5.19713 17.143C5.07768 16.8357 4.93531 16.3739 4.89659 15.5229C4.85477 14.6029 4.8464 14.3266 4.8464 11.996C4.8464 9.66549 4.85477 9.39059 4.89659 8.47059C4.93549 7.61968 5.07768 7.15786 5.19713 6.85022C5.35531 6.44295 5.54477 6.15204 5.85022 5.84659C6.15568 5.54113 6.44659 5.35204 6.85386 5.19349C7.16149 5.07349 7.62349 4.93168 8.4744 4.89259C9.27949 4.85622 9.59149 4.84531 11.218 4.84349V4.84568ZM16.6595 6.29477C16.0813 6.29477 15.6122 6.76331 15.6122 7.34168C15.6122 7.91986 16.0813 8.38895 16.6595 8.38895C17.2377 8.38895 17.7068 7.91986 17.7068 7.34168C17.7068 6.76349 17.2377 6.2944 16.6595 6.2944V6.29477ZM12.0009 7.5184C9.52586 7.5184 7.51913 9.52513 7.51913 12.0002C7.51913 14.4753 9.52586 16.4811 12.0009 16.4811C14.476 16.4811 16.482 14.4753 16.482 12.0002C16.482 9.52513 14.476 7.5184 12.0009 7.5184ZM12.0009 9.09113C13.6075 9.09113 14.91 10.3935 14.91 12.0002C14.91 13.6068 13.6075 14.9093 12.0009 14.9093C10.3942 14.9093 9.09186 13.6068 9.09186 12.0002C9.09186 10.3935 10.3942 9.09113 12.0009 9.09113Z" fill="white"/>
<defs>
<radialGradient id="paint0_radial_1_1682" cx="0" cy="0" r="1" gradientUnits="userSpaceOnUse" gradientTransform="translate(6.46175 25.6363) rotate(-90) scale(23.4234 21.7915)">
<stop stop-color="#FFDD55"/>
<stop offset="0.1" stop-color="#FFDD55"/>
<stop offset="0.5" stop-color="#FF543E"/>
<stop offset="1" stop-color="#C837AB"/>
</radialGradient>
<radialGradient id="paint1_radial_1_1682" cx="0" cy="0" r="1" gradientUnits="userSpaceOnUse" gradientTransform="translate(-3.77783 1.88422) rotate(78.6776) scale(10.4705 43.1706)">
<stop stop-color="#3771C8"/>
<stop offset="0.128" stop-color="#3771C8"/>
<stop offset="1" stop-color="#6600FF" stop-opacity="0"/>
</radialGradient>
</defs>
</svg>
